<svg width="90" height="95" viewBox="0 0 90 95" fill="none" xmlns="http://www.w3.org/2000/svg">
<path d="M68.9062 0H21.0938C9.44399 0 0 9.96866 0 22.2656V72.7344C0 85.0313 9.44399 95 21.0938 95H68.9062C80.556 95 90 85.0313 90 72.7344V22.2656C90 9.96866 80.556 0 68.9062 0Z" fill="#242938"/>
<mask id="mask0_49887_268" style="mask-type:luminance" maskUnits="userSpaceOnUse" x="21" y="10" width="48" height="75">
<path d="M21.4453 10.3906H68.3297V84.6094H21.4453V10.3906Z" fill="white"/>
</mask>
<g mask="url(#mask0_49887_268)">
<path d="M33.1688 84.6093C39.6376 84.6093 44.8874 79.0678 44.8874 72.2397V59.8696H33.1688C26.7001 59.8696 21.4498 65.4115 21.4498 72.2397C21.4498 79.0678 26.7001 84.6093 33.1688 84.6093Z" fill="#0ACF83"/>
<path d="M21.4498 47.5C21.4498 40.6719 26.7001 35.1304 33.1688 35.1304H44.8874V59.8697H33.1688C26.7001 59.8697 21.4498 54.3282 21.4498 47.5Z" fill="#A259FF"/>
<path d="M21.4497 22.7603C21.4497 15.9322 26.6999 10.3906 33.1687 10.3906H44.8873V35.1303H33.1687C26.6999 35.1303 21.4497 29.5884 21.4497 22.7603Z" fill="#F24E1E"/>
<path d="M44.8875 10.3906H56.6061C63.0748 10.3906 68.3251 15.9322 68.3251 22.7603C68.3251 29.5884 63.0748 35.1303 56.6061 35.1303H44.8875V10.3906Z" fill="#FF7262"/>
<path d="M68.3251 47.5C68.3251 54.3282 63.0748 59.8697 56.6061 59.8697C50.1373 59.8697 44.8875 54.3282 44.8875 47.5C44.8875 40.6719 50.1373 35.1304 56.6061 35.1304C63.0748 35.1304 68.3251 40.6719 68.3251 47.5Z" fill="#1ABCFE"/>
</g>
</svg>
