<svg width="80" height="80" viewBox="0 0 80 80" fill="none" xmlns="http://www.w3.org/2000/svg">
<path d="M61.25 0H18.75C8.39466 0 0 8.39466 0 18.75V61.25C0 71.6053 8.39466 80 18.75 80H61.25C71.6053 80 80 71.6053 80 61.25V18.75C80 8.39466 71.6053 0 61.25 0Z" fill="#FFD4D4"/>
<path d="M13.0113 63.4464H22.9544V39.2986L8.75 28.6455V59.1852C8.75 61.543 10.6606 63.4464 13.0113 63.4464Z" fill="#C8384C"/>
<path d="M57.0454 63.4464H66.9888C69.3467 63.4464 71.2501 61.5361 71.2501 59.1852V28.6455L57.0454 39.2986" fill="#C8384C"/>
<path d="M57.0454 20.8323V39.2982L71.2501 28.6451V22.9626C71.2501 17.6929 65.2345 14.6885 61.0229 17.8491" fill="#C8384C"/>
<path d="M22.9546 39.2985V20.8328L39.9999 33.6169L57.0452 20.8325V39.2985L39.9999 52.0828" fill="#C8384C"/>
<path d="M8.75 22.9634V28.6449L22.9544 39.2984V20.8328L18.9772 17.8496C14.7584 14.689 8.75 17.6934 8.75 22.9634Z" fill="#C8384C"/>
</svg>
