<svg width="101" height="100" viewBox="0 0 101 100" fill="none" xmlns="http://www.w3.org/2000/svg">
<g clip-path="url(#clip0_49887_258)" filter="url(#filter0_d_49887_258)">
<path d="M20.493 0H80.5797C89.6617 0 97.0727 7.41719 97.0727 16.6703V75.0531C97.0727 84.2328 89.7344 91.7234 80.5797 91.7234H20.493C11.3383 91.65 4 84.2328 4 74.9797V16.6703C4 7.41719 11.3383 0 20.493 0Z" fill="#330000"/>
<path d="M48.9743 54.6758H34.5157L31.6094 63.6332C31.5368 63.9915 31.2461 64.2064 30.8828 64.1348H23.6172C23.1813 64.1348 23.1086 63.9198 23.1813 63.4182L35.6782 28.0187C35.8235 27.6604 35.8961 27.2304 36.0414 26.7288C36.1868 25.9406 36.2594 25.0807 36.2594 24.2207C36.1868 24.0058 36.4047 23.8625 36.55 23.7908H46.5766C46.8672 23.7908 47.0125 23.9341 47.0852 24.0774L61.2532 63.4182C61.3985 63.8481 61.2532 64.0631 60.8899 64.0631H52.7524C52.4618 64.1348 52.2438 63.9198 52.0985 63.6332L48.9743 54.6758ZM36.768 46.865H46.5766C46.3586 46.0767 46.068 45.0735 45.7047 44.1419C45.3414 43.1387 44.9782 41.9922 44.6875 40.8456C44.3243 39.6274 43.961 38.4809 43.5977 37.3343C43.2344 36.1161 42.8711 35.0412 42.5805 33.9664C42.2899 32.8915 41.9993 31.8883 41.7086 30.9567H41.636C41.2727 32.6048 40.8368 34.253 40.3282 35.9012C39.7469 37.7643 39.1657 39.6274 38.5118 41.5622C37.9305 43.497 37.3493 45.2885 36.768 46.865ZM69.8992 30.5984C68.5914 30.6701 67.3563 30.1684 66.4844 29.2369C65.6125 28.3053 65.1039 27.0154 65.1766 25.7256C65.1039 24.4357 65.6125 23.2175 66.5571 22.3576C67.5016 21.4977 68.7368 20.9961 69.9719 20.9961C71.4977 20.9961 72.6602 21.426 73.5321 22.3576C74.4039 23.2892 74.8399 24.5074 74.8399 25.7256C74.9125 27.0154 74.4039 28.3053 73.4594 29.2369C72.5149 30.1684 71.2071 30.6701 69.8992 30.5984ZM65.5399 63.7765V34.3247C65.5399 33.9664 65.6852 33.823 66.0485 33.823H73.75C74.1133 33.823 74.2586 34.038 74.2586 34.3247V63.7765C74.2586 64.2064 74.1133 64.4214 73.75 64.4214H66.1211C65.7578 64.3498 65.5399 64.1348 65.5399 63.7765Z" fill="#FF9A00"/>
</g>
<defs>
<filter id="filter0_d_49887_258" x="0" y="0" width="101" height="99.7234" filterUnits="userSpaceOnUse" color-interpolation-filters="sRGB">
<feFlood flood-opacity="0" result="BackgroundImageFix"/>
<feColorMatrix in="SourceAlpha" type="matrix" values="0 0 0 0 0 0 0 0 0 0 0 0 0 0 0 0 0 0 127 0" result="hardAlpha"/>
<feOffset dy="4"/>
<feGaussianBlur stdDeviation="2"/>
<feComposite in2="hardAlpha" operator="out"/>
<feColorMatrix type="matrix" values="0 0 0 0 0 0 0 0 0 0 0 0 0 0 0 0 0 0 0.25 0"/>
<feBlend mode="normal" in2="BackgroundImageFix" result="effect1_dropShadow_49887_258"/>
<feBlend mode="normal" in="SourceGraphic" in2="effect1_dropShadow_49887_258" result="shape"/>
</filter>
<clipPath id="clip0_49887_258">
<rect width="93" height="91.7234" fill="white" transform="translate(4)"/>
</clipPath>
</defs>
</svg>
