<svg width="102" height="100" viewBox="0 0 102 100" fill="none" xmlns="http://www.w3.org/2000/svg">
<g clip-path="url(#clip0_49887_255)" filter="url(#filter0_d_49887_255)">
<path d="M82.3818 0H19.6029C10.9857 0 4 7.00227 4 15.64V76.2128C4 84.8505 10.9857 91.8528 19.6029 91.8528H82.3818C90.999 91.8528 97.9847 84.8505 97.9847 76.2128V15.64C97.9847 7.00227 90.999 0 82.3818 0Z" fill="#49021F"/>
<path d="M38.1392 23.9909V64.1835C38.1392 64.6043 37.95 64.8147 37.5716 64.8147H29.9427C29.6059 64.8147 29.4379 64.6043 29.4386 64.1835V23.9909C29.4386 23.6546 29.6277 23.4863 30.0058 23.4861H37.6347C37.6989 23.477 37.7642 23.482 37.8263 23.5007C37.8883 23.5195 37.9455 23.5515 37.9939 23.5946C38.0423 23.6378 38.0807 23.6909 38.1065 23.7504C38.1323 23.8099 38.1448 23.8743 38.1432 23.9391L38.1392 23.9909ZM61.1162 65.4415L60.7102 65.4455C57.8083 65.4898 54.933 64.8864 52.2934 63.679C49.8343 62.54 47.7787 60.6808 46.3984 58.3472C45.0038 56.029 44.2897 53.14 44.2559 49.6799L44.2548 49.4191C44.2311 46.5231 44.9706 43.6722 46.3988 41.1534C47.8303 38.6567 49.9182 36.6003 52.4355 35.2076L52.6403 35.0959C55.3718 33.5817 58.6713 32.8246 62.5388 32.8246L62.6203 32.8249L62.8013 32.829L63.0062 32.8371L63.2349 32.8488L63.4871 32.8646L63.7628 32.8848L64.3859 32.9359L64.5562 32.9506V20.5211C64.5562 20.2269 64.6823 20.0796 64.9344 20.0791H72.8786C72.93 20.0717 72.9824 20.0764 73.0316 20.0928C73.0809 20.1092 73.1256 20.1369 73.1623 20.1736C73.199 20.2103 73.2266 20.2551 73.243 20.3044C73.2594 20.3537 73.2641 20.4061 73.2568 20.4575V57.7479C73.2592 58.527 73.2908 59.3057 73.3515 60.0824L73.411 60.8959L73.4635 61.6531L73.509 62.3538C73.5168 62.4849 73.4849 62.6152 73.4174 62.7279C73.3499 62.8405 73.25 62.9301 73.1308 62.985C71.0814 63.8402 68.9467 64.4747 66.763 64.8775C64.8998 65.222 63.0111 65.4106 61.1166 65.4415M64.5566 57.6215V40.3962C64.2159 40.3038 63.8679 40.2405 63.5165 40.207C63.087 40.1635 62.6555 40.1424 62.2239 40.1438C60.6937 40.1287 59.1818 40.4744 57.8106 41.1534C56.4751 41.8183 55.3346 42.8184 54.5006 44.056C53.6386 45.3177 53.2077 46.9792 53.2079 49.0406C53.1774 50.4159 53.4018 51.785 53.8699 53.0785C54.2509 54.1208 54.8533 55.0681 55.6354 55.855C56.384 56.579 57.2906 57.119 58.2835 57.4323C59.3321 57.772 60.4281 57.9425 61.5303 57.9375C62.1185 57.9375 62.6649 57.9163 63.1696 57.8739C63.5722 57.8436 63.9712 57.7772 64.362 57.6755L64.5566 57.6215Z" fill="#FF3366"/>
</g>
<defs>
<filter id="filter0_d_49887_255" x="0" y="0" width="102" height="99.8528" filterUnits="userSpaceOnUse" color-interpolation-filters="sRGB">
<feFlood flood-opacity="0" result="BackgroundImageFix"/>
<feColorMatrix in="SourceAlpha" type="matrix" values="0 0 0 0 0 0 0 0 0 0 0 0 0 0 0 0 0 0 127 0" result="hardAlpha"/>
<feOffset dy="4"/>
<feGaussianBlur stdDeviation="2"/>
<feComposite in2="hardAlpha" operator="out"/>
<feColorMatrix type="matrix" values="0 0 0 0 0 0 0 0 0 0 0 0 0 0 0 0 0 0 0.25 0"/>
<feBlend mode="normal" in2="BackgroundImageFix" result="effect1_dropShadow_49887_255"/>
<feBlend mode="normal" in="SourceGraphic" in2="effect1_dropShadow_49887_255" result="shape"/>
</filter>
<clipPath id="clip0_49887_255">
<rect width="94" height="91.8528" fill="white" transform="translate(4)"/>
</clipPath>
</defs>
</svg>
