<svg width="80" height="80" viewBox="0 0 80 80" fill="none" xmlns="http://www.w3.org/2000/svg">
<path fill-rule="evenodd" clip-rule="evenodd" d="M17.112 0C12.5748 -3.34565e-07 8.22324 1.80196 5.01431 5.00967C1.80538 8.21737 0.00174241 12.5682 0 17.1054V62.7374C0 67.2758 1.80287 71.6283 5.01199 74.8374C8.22111 78.0466 12.5736 79.8494 17.112 79.8494H62.744C67.2812 79.8477 71.6321 78.044 74.8398 74.8351C78.0475 71.6262 79.8494 67.2747 79.8494 62.7374V17.1054C79.8477 12.5693 78.0449 8.2195 74.8374 5.01199C71.6299 1.80447 67.2801 0.00174164 62.744 0H17.112ZM67.666 17.1317C67.666 18.4389 67.1467 19.6925 66.2224 20.6167C65.2982 21.541 64.0446 22.0603 62.7374 22.0603C61.4303 22.0603 60.1767 21.541 59.2524 20.6167C58.3281 19.6925 57.8089 18.4389 57.8089 17.1317C57.8089 15.8246 58.3281 14.571 59.2524 13.6467C60.1767 12.7224 61.4303 12.2031 62.7374 12.2031C64.0446 12.2031 65.2982 12.7224 66.2224 13.6467C67.1467 14.571 67.666 15.8246 67.666 17.1317ZM39.9346 26.2529C36.3094 26.2529 32.8328 27.6929 30.2694 30.2563C27.7061 32.8196 26.266 36.2963 26.266 39.9214C26.266 43.5466 27.7061 47.0232 30.2694 49.5866C32.8328 52.1499 36.3094 53.59 39.9346 53.59C43.5597 53.59 47.0364 52.1499 49.5997 49.5866C52.1631 47.0232 53.6031 43.5466 53.6031 39.9214C53.6031 36.2963 52.1631 32.8196 49.5997 30.2563C47.0364 27.6929 43.5597 26.2529 39.9346 26.2529ZM19.688 39.9214C19.688 34.5534 21.8204 29.4053 25.6162 25.6096C29.4119 21.8139 34.56 19.6814 39.928 19.6814C45.296 19.6814 50.4441 21.8139 54.2398 25.6096C58.0356 29.4053 60.168 34.5534 60.168 39.9214C60.168 45.2894 58.0356 50.4375 54.2398 54.2333C50.4441 58.029 45.296 60.1614 39.928 60.1614C34.56 60.1614 29.4119 58.029 25.6162 54.2333C21.8204 50.4375 19.688 45.2894 19.688 39.9214Z" fill="#FFD4D4"/>
</svg>
