<svg width="98" height="98" viewBox="0 0 98 98" fill="none" xmlns="http://www.w3.org/2000/svg">
<g filter="url(#filter0_d_49887_264)">
<path d="M19.9377 1H78.0623C86.8752 1 94 8.20393 94 17.1148V73.6102C94 82.5211 86.8752 89.725 78.0623 89.725H19.9377C11.1248 89.725 4 82.5211 4 73.6102V17.1148C4 8.20393 11.1248 1 19.9377 1Z" fill="#001E36"/>
<path d="M36.2502 23.6261C35.1252 23.6261 34.0002 23.6261 32.838 23.6644C31.675 23.7019 30.5873 23.7019 29.5748 23.7402C28.5623 23.7778 27.625 23.7778 26.725 23.8153C25.8623 23.8529 25.2625 23.8529 24.6248 23.8529C24.3625 23.8529 24.25 24.0039 24.25 24.269V63.1673C24.25 63.5075 24.3998 63.6592 24.7 63.6592H31.9752C32.2375 63.6209 32.4252 63.3941 32.3873 63.1297V50.9953C33.0995 50.9953 33.6248 50.9953 34.0002 51.0328C34.375 51.0704 34.9748 51.0704 35.8748 51.0704C38.9502 51.0704 41.7627 50.7302 44.3123 49.7854C46.75 48.8781 48.8502 47.2904 50.35 45.1733C51.85 43.0564 52.6 40.3724 52.6 37.1214C52.6 35.4203 52.3005 33.7951 51.738 32.2074C51.1419 30.5899 50.2082 29.1203 49 27.898C47.5739 26.5014 45.8573 25.4424 43.9748 24.7977C41.8745 24.0039 39.325 23.6261 36.2502 23.6261ZM37.087 31.0719C38.4229 31.0974 39.7237 31.3328 40.9373 31.8289C42.025 32.245 42.925 33.0013 43.5627 33.9836C44.1608 35.0003 44.46 36.1674 44.4255 37.349C44.4255 39.0118 44.05 40.2975 43.2625 41.2423C42.437 42.1872 41.3873 42.9059 40.1877 43.2461C38.7998 43.6997 37.3373 43.9258 35.8748 43.9258H33.887C33.437 43.9258 32.9505 43.8883 32.4252 43.8507V31.1492C32.6875 31.1109 33.2127 31.0733 33.963 31.1116C34.6752 31.0733 35.5373 31.0733 36.5125 31.0733C36.7047 31.0686 36.8962 31.0681 37.087 31.0719ZM68.5377 33.002C65.875 33.002 63.6623 33.4173 61.9002 34.3246C60.288 35.0808 58.9 36.29 57.9627 37.8019C57.138 39.201 56.6873 40.7504 56.6873 42.3764C56.6552 43.7137 56.9516 45.0383 57.55 46.2322C58.2513 47.5035 59.2251 48.6012 60.4005 49.4452C62.0501 50.5825 63.8402 51.4975 65.7252 52.1669C67.5625 52.8849 68.8 53.4519 69.4005 53.9431C70.0002 54.435 70.3005 54.9262 70.3005 55.4557C70.3005 56.1361 69.8877 56.779 69.288 57.0434C68.613 57.3836 67.6005 57.5728 66.1752 57.5728C64.6755 57.5728 63.175 57.3836 61.7498 57.0058C60.1133 56.6374 58.5443 56.0124 57.1 55.1537C56.9875 55.0779 56.875 55.0403 56.7625 55.1162C56.65 55.1913 56.6127 55.3423 56.6127 55.4557V62.0332C56.5755 62.3359 56.7625 62.6003 57.0255 62.7513C58.2415 63.3239 59.5278 63.7308 60.8505 63.9612C62.538 64.3014 64.2248 64.4523 65.9495 64.4523C68.6495 64.4523 70.9002 64.037 72.7375 63.2432C74.425 62.5627 75.8875 61.3911 76.9373 59.8785C77.9204 58.3916 78.4306 56.6378 78.3998 54.8511C78.4367 53.5014 78.1405 52.1635 77.5377 50.9577C76.8248 49.672 75.8123 48.6138 74.5748 47.8199C72.7644 46.6738 70.826 45.7474 68.8 45.0599C67.8952 44.6824 67.0068 44.2662 66.1373 43.8124C65.65 43.548 65.2 43.2078 64.8625 42.7918C64.6375 42.4891 64.4877 42.1496 64.4877 41.8094C64.4877 41.4692 64.6002 41.0914 64.7873 40.7887C65.0502 40.4109 65.4623 40.1458 65.9495 40.0324C66.6625 39.8439 67.45 39.7298 68.1995 39.7674C69.6248 39.7674 71.012 39.9566 72.4 40.2593C73.6755 40.5236 74.875 40.9397 76 41.545C76.1498 41.6201 76.3375 41.6201 76.675 41.545C76.7336 41.5012 76.7811 41.4441 76.8137 41.3784C76.8464 41.3126 76.8631 41.24 76.8627 41.1665V35.005C76.8627 34.8533 76.8248 34.7023 76.7875 34.5514C76.7123 34.4004 76.5625 34.2487 76.4127 34.2112C75.3784 33.785 74.2947 33.4928 73.1875 33.3415C71.6477 33.1155 70.0938 33.0025 68.5377 33.002Z" fill="#31A8FF"/>
</g>
<defs>
<filter id="filter0_d_49887_264" x="0" y="0" width="98" height="98.725" filterUnits="userSpaceOnUse" color-interpolation-filters="sRGB">
<feFlood flood-opacity="0" result="BackgroundImageFix"/>
<feColorMatrix in="SourceAlpha" type="matrix" values="0 0 0 0 0 0 0 0 0 0 0 0 0 0 0 0 0 0 127 0" result="hardAlpha"/>
<feOffset dy="4"/>
<feGaussianBlur stdDeviation="2"/>
<feComposite in2="hardAlpha" operator="out"/>
<feColorMatrix type="matrix" values="0 0 0 0 0 0 0 0 0 0 0 0 0 0 0 0 0 0 0.25 0"/>
<feBlend mode="normal" in2="BackgroundImageFix" result="effect1_dropShadow_49887_264"/>
<feBlend mode="normal" in="SourceGraphic" in2="effect1_dropShadow_49887_264" result="shape"/>
</filter>
</defs>
</svg>
