<svg width="101" height="101" viewBox="0 0 101 101" fill="none" xmlns="http://www.w3.org/2000/svg">
<g clip-path="url(#clip0_49887_279)" filter="url(#filter0_d_49887_279)">
<path d="M75.2031 0H25.7969C13.7588 0 4 9.75879 4 21.7969V71.2031C4 83.2412 13.7588 93 25.7969 93H75.2031C87.2412 93 97 83.2412 97 71.2031V21.7969C97 9.75879 87.2412 0 75.2031 0Z" fill="#242938"/>
<path d="M16.2483 36.4037C16.2483 36.4037 14.5282 35.1638 16.5924 33.5083L21.4008 29.2085C21.4008 29.2085 22.7769 27.7608 24.2315 29.0221L68.6059 62.618V78.7281C68.6059 78.7281 68.5845 81.258 65.3378 80.9783L16.2483 36.4037Z" fill="#2489CA"/>
<path d="M27.686 46.7877L16.2484 57.1859C16.2484 57.1859 15.0729 58.0603 16.2484 59.6228L21.5585 64.4526C21.5585 64.4526 22.8198 65.8073 24.6831 64.2663L36.8087 55.072L27.686 46.7877Z" fill="#1070B3"/>
<path d="M47.7659 46.8738L68.7421 30.8567L68.6059 14.8327C68.6059 14.8327 67.71 11.3354 64.7217 13.1558L36.8086 38.5604L47.7659 46.8738Z" fill="#0877B9"/>
<path d="M65.3378 81.0002C66.5562 82.2469 68.0326 81.8386 68.0326 81.8386L84.3792 73.7836C86.4717 72.3573 86.1778 70.5874 86.1778 70.5874V22.4864C86.1778 20.3721 84.0134 19.6416 84.0134 19.6416L69.8458 12.8119C66.7499 10.8985 64.7217 13.1559 64.7217 13.1559C64.7217 13.1559 67.33 11.2785 68.6059 14.8328V78.4343C68.6075 78.868 68.5121 79.2967 68.3265 79.6887C67.9538 80.4411 67.144 81.1433 65.2019 80.8494L65.3378 81.0002Z" fill="#3C99D4"/>
</g>
<defs>
<filter id="filter0_d_49887_279" x="0" y="0" width="101" height="101" filterUnits="userSpaceOnUse" color-interpolation-filters="sRGB">
<feFlood flood-opacity="0" result="BackgroundImageFix"/>
<feColorMatrix in="SourceAlpha" type="matrix" values="0 0 0 0 0 0 0 0 0 0 0 0 0 0 0 0 0 0 127 0" result="hardAlpha"/>
<feOffset dy="4"/>
<feGaussianBlur stdDeviation="2"/>
<feComposite in2="hardAlpha" operator="out"/>
<feColorMatrix type="matrix" values="0 0 0 0 0 0 0 0 0 0 0 0 0 0 0 0 0 0 0.25 0"/>
<feBlend mode="normal" in2="BackgroundImageFix" result="effect1_dropShadow_49887_279"/>
<feBlend mode="normal" in="SourceGraphic" in2="effect1_dropShadow_49887_279" result="shape"/>
</filter>
<clipPath id="clip0_49887_279">
<rect width="93" height="93" fill="white" transform="translate(4)"/>
</clipPath>
</defs>
</svg>
