<svg width="92" height="92" viewBox="0 0 92 92" fill="none" xmlns="http://www.w3.org/2000/svg">
<path d="M84.3333 25.1082C84.2877 23.4545 84.1597 21.8041 83.95 20.1632C83.6633 18.7263 83.1863 17.334 82.5316 16.0232C81.844 14.6029 80.9241 13.3073 79.81 12.1898C78.6837 11.0861 77.3899 10.1675 75.9766 9.46817C74.6639 8.82672 73.2717 8.36265 71.8366 8.08817C70.2118 7.84259 68.5729 7.70174 66.93 7.6665H25.1083C23.4546 7.71212 21.8042 7.84006 20.1633 8.04984C18.7264 8.33651 17.3341 8.81349 16.0233 9.46817C14.603 10.1558 13.3074 11.0757 12.19 12.1898C11.0862 13.3161 10.1677 14.6099 9.46829 16.0232C8.82684 17.3359 8.36278 18.7281 8.08829 20.1632C7.84271 21.788 7.70187 23.4269 7.66663 25.0698V66.8915C7.71225 68.5452 7.84018 70.1956 8.04996 71.8365C8.33663 73.2734 8.81361 74.6657 9.46829 75.9765C10.156 77.3968 11.0758 78.6924 12.19 79.8098C13.3162 80.9135 14.61 81.8321 16.0233 82.5315C17.336 83.173 18.7282 83.637 20.1633 83.9115C21.7881 84.1571 23.4271 84.2979 25.07 84.3332H66.8916C68.5453 84.2876 70.1957 84.1596 71.8366 83.9498C73.2735 83.6632 74.6658 83.1862 75.9766 82.5315C77.3969 81.8438 78.6925 80.924 79.81 79.8098C80.9137 78.6836 81.8323 77.3898 82.5316 75.9765C83.1731 74.6638 83.6371 73.2716 83.9116 71.8365C84.1572 70.2117 84.2981 68.5727 84.3333 66.9298V25.1082ZM46.8816 72.8332C42.2776 72.8138 37.7537 71.6268 33.7333 69.3832L19.1666 73.2165L23 58.9565C20.5262 54.8036 19.2031 50.0669 19.1666 45.2332C19.1819 39.8011 20.8042 34.4949 23.8293 29.983C26.8544 25.4712 31.147 21.9554 36.1664 19.8784C41.1858 17.8015 46.7076 17.2562 52.0363 18.3114C57.3649 19.3666 62.2622 21.975 66.1113 25.8082C69.9604 29.6413 72.5891 34.5276 73.6665 39.8519C74.7438 45.1761 74.2216 50.7001 72.1655 55.7281C70.1094 60.7561 66.6115 65.0633 62.1122 68.1071C57.613 71.1509 52.3136 72.7953 46.8816 72.8332ZM46.8816 22.5015C42.8176 22.548 38.8384 23.6706 35.3493 25.755C31.8601 27.8394 28.9856 30.8111 27.0184 34.3677C25.0512 37.9242 24.0616 41.9385 24.1503 46.0019C24.239 50.0652 25.4028 54.0325 27.5233 57.4998L28.06 58.3815L25.76 66.7765L34.5 64.3998L35.3433 64.8982C38.83 66.9519 42.7968 68.0494 46.8433 68.0798C52.9433 68.0798 58.7934 65.6566 63.1068 61.3433C67.4201 57.03 69.8433 51.1798 69.8433 45.0798C69.8433 38.9799 67.4201 33.1297 63.1068 28.8164C58.7934 24.503 52.9433 22.0798 46.8433 22.0798L46.8816 22.5015ZM60.2983 55.1615C59.7962 55.999 59.1239 56.7217 58.325 57.283C57.526 57.8442 56.6181 58.2315 55.66 58.4198C54.2286 58.6862 52.7536 58.5941 51.3666 58.1515C50.0611 57.7424 48.7811 57.256 47.5333 56.6948C42.7943 54.3169 38.7528 50.7509 35.8033 46.3448C34.2044 44.3013 33.2324 41.8379 33.005 39.2532C32.9821 38.179 33.1853 37.1121 33.6014 36.1215C34.0174 35.1309 34.637 34.2389 35.42 33.5032C35.6506 33.2417 35.9335 33.0315 36.2505 32.8863C36.5674 32.741 36.9113 32.6639 37.26 32.6598H38.3333C38.755 32.6598 39.33 32.6598 39.8666 33.8482C40.4033 35.0365 41.8216 38.6015 42.0133 38.9465C42.1075 39.1304 42.1566 39.3341 42.1566 39.5407C42.1566 39.7473 42.1075 39.9509 42.0133 40.1348C41.8461 40.5525 41.6132 40.9408 41.3233 41.2848C40.9783 41.7065 40.595 42.2048 40.2883 42.5115C39.9816 42.8182 39.5983 43.2015 39.9816 43.8915C41.0264 45.6505 42.3172 47.2512 43.815 48.6448C45.4477 50.0875 47.3144 51.2413 49.335 52.0565C50.025 52.4015 50.4466 52.3632 50.83 52.0565C51.2133 51.7498 52.555 50.0632 53.015 49.3732C53.475 48.6832 53.935 48.7982 54.5483 49.0282C55.1616 49.2582 58.5733 50.9065 59.2633 51.2515C59.9533 51.5965 60.375 51.7498 60.5666 52.0565C60.7329 53.0598 60.6405 54.0889 60.2983 55.0465V55.1615Z" fill="#FFD4D4"/>
</svg>
